<mxfile host="Electron" agent="Mozilla/5.0 (Windows NT 10.0; Win64; x64) AppleWebKit/537.36 (KHTML, like Gecko) draw.io/24.7.17 Chrome/128.0.6613.36 Electron/32.0.1 Safari/537.36" version="24.7.17">
  <diagram name="Page-1" id="oKVt8MBjMBBs5zzT-ZyF">
    <mxGraphModel dx="2368" dy="1831" grid="1" gridSize="10" guides="1" tooltips="1" connect="1" arrows="1" fold="1" page="1" pageScale="1" pageWidth="850" pageHeight="1100" math="0" shadow="0">
      <root>
        <mxCell id="0" />
        <mxCell id="1" parent="0" />
        <mxCell id="Ip_L7VddbrHMoP8GEFYD-8" value="" style="edgeStyle=orthogonalEdgeStyle;rounded=0;orthogonalLoop=1;jettySize=auto;html=1;entryX=0.603;entryY=-0.023;entryDx=0;entryDy=0;entryPerimeter=0;" edge="1" parent="1" source="yP5g847EMCX4jfwRUblM-2" target="Ip_L7VddbrHMoP8GEFYD-30">
          <mxGeometry relative="1" as="geometry">
            <mxPoint x="425" y="-160" as="targetPoint" />
          </mxGeometry>
        </mxCell>
        <mxCell id="yP5g847EMCX4jfwRUblM-2" value="Start" style="ellipse;whiteSpace=wrap;html=1;" parent="1" vertex="1">
          <mxGeometry x="365" y="-300" width="120" height="80" as="geometry" />
        </mxCell>
        <mxCell id="Ip_L7VddbrHMoP8GEFYD-21" value="" style="edgeStyle=orthogonalEdgeStyle;rounded=0;orthogonalLoop=1;jettySize=auto;html=1;entryX=0.595;entryY=0.051;entryDx=0;entryDy=0;entryPerimeter=0;" edge="1" parent="1" source="7TJ9QhRvp5jiKfUdtxeP-8" target="Ip_L7VddbrHMoP8GEFYD-33">
          <mxGeometry relative="1" as="geometry">
            <mxPoint x="425" y="260" as="targetPoint" />
            <Array as="points">
              <mxPoint x="425" y="263" />
            </Array>
          </mxGeometry>
        </mxCell>
        <mxCell id="7TJ9QhRvp5jiKfUdtxeP-8" value="Login" style="rhombus;whiteSpace=wrap;html=1;" parent="1" vertex="1">
          <mxGeometry x="385" y="110" width="80" height="80" as="geometry" />
        </mxCell>
        <mxCell id="7TJ9QhRvp5jiKfUdtxeP-66" style="edgeStyle=orthogonalEdgeStyle;rounded=0;orthogonalLoop=1;jettySize=auto;html=1;exitX=0.5;exitY=1;exitDx=0;exitDy=0;" parent="1" source="7TJ9QhRvp5jiKfUdtxeP-26" target="7TJ9QhRvp5jiKfUdtxeP-62" edge="1">
          <mxGeometry relative="1" as="geometry" />
        </mxCell>
        <mxCell id="7TJ9QhRvp5jiKfUdtxeP-26" value="Input(opsi)" style="shape=parallelogram;perimeter=parallelogramPerimeter;whiteSpace=wrap;html=1;fixedSize=1;rounded=1;" parent="1" vertex="1">
          <mxGeometry x="110" y="489.9999999999999" width="120" height="60" as="geometry" />
        </mxCell>
        <mxCell id="7TJ9QhRvp5jiKfUdtxeP-31" value="" style="edgeStyle=orthogonalEdgeStyle;rounded=0;orthogonalLoop=1;jettySize=auto;html=1;" parent="1" source="7TJ9QhRvp5jiKfUdtxeP-28" target="7TJ9QhRvp5jiKfUdtxeP-30" edge="1">
          <mxGeometry relative="1" as="geometry" />
        </mxCell>
        <mxCell id="7TJ9QhRvp5jiKfUdtxeP-28" value="Input(opsi)" style="shape=parallelogram;perimeter=parallelogramPerimeter;whiteSpace=wrap;html=1;fixedSize=1;rounded=1;" parent="1" vertex="1">
          <mxGeometry x="365.00412698412697" y="549.9976190476191" width="120" height="60" as="geometry" />
        </mxCell>
        <mxCell id="7TJ9QhRvp5jiKfUdtxeP-33" value="" style="edgeStyle=orthogonalEdgeStyle;rounded=0;orthogonalLoop=1;jettySize=auto;html=1;entryX=0;entryY=0.5;entryDx=0;entryDy=0;" parent="1" source="7TJ9QhRvp5jiKfUdtxeP-30" target="Ip_L7VddbrHMoP8GEFYD-29" edge="1">
          <mxGeometry relative="1" as="geometry">
            <mxPoint x="560" y="730" as="targetPoint" />
          </mxGeometry>
        </mxCell>
        <mxCell id="7TJ9QhRvp5jiKfUdtxeP-34" value="True" style="edgeLabel;html=1;align=center;verticalAlign=middle;resizable=0;points=[];" parent="7TJ9QhRvp5jiKfUdtxeP-33" vertex="1" connectable="0">
          <mxGeometry x="-0.0595" relative="1" as="geometry">
            <mxPoint as="offset" />
          </mxGeometry>
        </mxCell>
        <mxCell id="7TJ9QhRvp5jiKfUdtxeP-36" value="" style="edgeStyle=orthogonalEdgeStyle;rounded=0;orthogonalLoop=1;jettySize=auto;html=1;" parent="1" source="7TJ9QhRvp5jiKfUdtxeP-30" target="7TJ9QhRvp5jiKfUdtxeP-35" edge="1">
          <mxGeometry relative="1" as="geometry" />
        </mxCell>
        <mxCell id="7TJ9QhRvp5jiKfUdtxeP-37" value="False" style="edgeLabel;html=1;align=center;verticalAlign=middle;resizable=0;points=[];" parent="7TJ9QhRvp5jiKfUdtxeP-36" vertex="1" connectable="0">
          <mxGeometry x="-0.0988" y="-3" relative="1" as="geometry">
            <mxPoint as="offset" />
          </mxGeometry>
        </mxCell>
        <mxCell id="7TJ9QhRvp5jiKfUdtxeP-30" value="Opsi == &quot;1&quot;" style="rhombus;whiteSpace=wrap;html=1;rounded=1;" parent="1" vertex="1">
          <mxGeometry x="365" y="680" width="120" height="100" as="geometry" />
        </mxCell>
        <mxCell id="7TJ9QhRvp5jiKfUdtxeP-104" style="edgeStyle=orthogonalEdgeStyle;rounded=0;orthogonalLoop=1;jettySize=auto;html=1;exitX=1;exitY=0.5;exitDx=0;exitDy=0;entryX=1;entryY=0.5;entryDx=0;entryDy=0;" parent="1" source="Ip_L7VddbrHMoP8GEFYD-29" target="7TJ9QhRvp5jiKfUdtxeP-28" edge="1">
          <mxGeometry relative="1" as="geometry">
            <mxPoint x="680" y="730" as="sourcePoint" />
            <mxPoint x="750.0041269841267" y="409.9976190476191" as="targetPoint" />
            <Array as="points">
              <mxPoint x="750" y="730" />
              <mxPoint x="750" y="580" />
            </Array>
          </mxGeometry>
        </mxCell>
        <mxCell id="7TJ9QhRvp5jiKfUdtxeP-39" value="" style="edgeStyle=orthogonalEdgeStyle;rounded=0;orthogonalLoop=1;jettySize=auto;html=1;entryX=0.144;entryY=0.427;entryDx=0;entryDy=0;entryPerimeter=0;" parent="1" source="7TJ9QhRvp5jiKfUdtxeP-35" target="Ip_L7VddbrHMoP8GEFYD-39" edge="1">
          <mxGeometry relative="1" as="geometry">
            <mxPoint x="570" y="905" as="targetPoint" />
            <Array as="points">
              <mxPoint x="574" y="905" />
            </Array>
          </mxGeometry>
        </mxCell>
        <mxCell id="7TJ9QhRvp5jiKfUdtxeP-40" value="True" style="edgeLabel;html=1;align=center;verticalAlign=middle;resizable=0;points=[];" parent="7TJ9QhRvp5jiKfUdtxeP-39" vertex="1" connectable="0">
          <mxGeometry x="-0.0686" y="1" relative="1" as="geometry">
            <mxPoint as="offset" />
          </mxGeometry>
        </mxCell>
        <mxCell id="7TJ9QhRvp5jiKfUdtxeP-42" value="" style="edgeStyle=orthogonalEdgeStyle;rounded=0;orthogonalLoop=1;jettySize=auto;html=1;" parent="1" source="7TJ9QhRvp5jiKfUdtxeP-35" target="7TJ9QhRvp5jiKfUdtxeP-41" edge="1">
          <mxGeometry relative="1" as="geometry" />
        </mxCell>
        <mxCell id="7TJ9QhRvp5jiKfUdtxeP-43" value="False" style="edgeLabel;html=1;align=center;verticalAlign=middle;resizable=0;points=[];" parent="7TJ9QhRvp5jiKfUdtxeP-42" vertex="1" connectable="0">
          <mxGeometry x="-0.0008" y="-1" relative="1" as="geometry">
            <mxPoint as="offset" />
          </mxGeometry>
        </mxCell>
        <mxCell id="7TJ9QhRvp5jiKfUdtxeP-35" value="Opsi == &quot;2&quot;" style="rhombus;whiteSpace=wrap;html=1;rounded=1;" parent="1" vertex="1">
          <mxGeometry x="365" y="850" width="120" height="110" as="geometry" />
        </mxCell>
        <mxCell id="7TJ9QhRvp5jiKfUdtxeP-103" style="edgeStyle=orthogonalEdgeStyle;rounded=0;orthogonalLoop=1;jettySize=auto;html=1;exitX=0.896;exitY=0.373;exitDx=0;exitDy=0;entryX=1;entryY=0.5;entryDx=0;entryDy=0;exitPerimeter=0;" parent="1" source="Ip_L7VddbrHMoP8GEFYD-39" target="7TJ9QhRvp5jiKfUdtxeP-28" edge="1">
          <mxGeometry relative="1" as="geometry">
            <mxPoint x="690" y="905" as="sourcePoint" />
            <mxPoint x="750.0041269841267" y="409.9976190476191" as="targetPoint" />
            <Array as="points">
              <mxPoint x="667" y="905" />
              <mxPoint x="750" y="905" />
              <mxPoint x="750" y="580" />
            </Array>
          </mxGeometry>
        </mxCell>
        <mxCell id="7TJ9QhRvp5jiKfUdtxeP-45" value="" style="edgeStyle=orthogonalEdgeStyle;rounded=0;orthogonalLoop=1;jettySize=auto;html=1;entryX=0;entryY=0.5;entryDx=0;entryDy=0;entryPerimeter=0;" parent="1" source="7TJ9QhRvp5jiKfUdtxeP-41" target="Ip_L7VddbrHMoP8GEFYD-54" edge="1">
          <mxGeometry relative="1" as="geometry">
            <mxPoint x="570" y="1075" as="targetPoint" />
          </mxGeometry>
        </mxCell>
        <mxCell id="7TJ9QhRvp5jiKfUdtxeP-46" value="True" style="edgeLabel;html=1;align=center;verticalAlign=middle;resizable=0;points=[];" parent="7TJ9QhRvp5jiKfUdtxeP-45" vertex="1" connectable="0">
          <mxGeometry x="-0.0457" y="-2" relative="1" as="geometry">
            <mxPoint as="offset" />
          </mxGeometry>
        </mxCell>
        <mxCell id="7TJ9QhRvp5jiKfUdtxeP-41" value="Opsi == &quot;3&quot;" style="rhombus;whiteSpace=wrap;html=1;rounded=1;" parent="1" vertex="1">
          <mxGeometry x="365" y="1020" width="120" height="110" as="geometry" />
        </mxCell>
        <mxCell id="7TJ9QhRvp5jiKfUdtxeP-52" value="" style="edgeStyle=orthogonalEdgeStyle;rounded=0;orthogonalLoop=1;jettySize=auto;html=1;exitX=0.5;exitY=1;exitDx=0;exitDy=0;exitPerimeter=0;" parent="1" source="Ip_L7VddbrHMoP8GEFYD-54" target="7TJ9QhRvp5jiKfUdtxeP-51" edge="1">
          <mxGeometry relative="1" as="geometry">
            <mxPoint x="847.5" y="1105" as="sourcePoint" />
            <Array as="points" />
          </mxGeometry>
        </mxCell>
        <mxCell id="7TJ9QhRvp5jiKfUdtxeP-55" value="True" style="edgeLabel;html=1;align=center;verticalAlign=middle;resizable=0;points=[];" parent="7TJ9QhRvp5jiKfUdtxeP-52" vertex="1" connectable="0">
          <mxGeometry x="-0.3886" y="-4" relative="1" as="geometry">
            <mxPoint y="1" as="offset" />
          </mxGeometry>
        </mxCell>
        <mxCell id="7TJ9QhRvp5jiKfUdtxeP-114" style="edgeStyle=orthogonalEdgeStyle;rounded=0;orthogonalLoop=1;jettySize=auto;html=1;exitX=0.5;exitY=1;exitDx=0;exitDy=0;entryX=1;entryY=0.5;entryDx=0;entryDy=0;" parent="1" source="7TJ9QhRvp5jiKfUdtxeP-51" target="7TJ9QhRvp5jiKfUdtxeP-112" edge="1">
          <mxGeometry relative="1" as="geometry" />
        </mxCell>
        <mxCell id="7TJ9QhRvp5jiKfUdtxeP-51" value="Logout" style="whiteSpace=wrap;html=1;rounded=1;" parent="1" vertex="1">
          <mxGeometry x="787.5" y="1520" width="120" height="60" as="geometry" />
        </mxCell>
        <mxCell id="7TJ9QhRvp5jiKfUdtxeP-59" style="edgeStyle=orthogonalEdgeStyle;rounded=0;orthogonalLoop=1;jettySize=auto;html=1;entryX=1;entryY=0.5;entryDx=0;entryDy=0;exitX=1;exitY=0.5;exitDx=0;exitDy=0;exitPerimeter=0;" parent="1" source="Ip_L7VddbrHMoP8GEFYD-54" edge="1">
          <mxGeometry relative="1" as="geometry">
            <mxPoint x="905" y="1077" as="sourcePoint" />
            <mxPoint x="500.00412698412674" y="581.9976190476191" as="targetPoint" />
            <Array as="points">
              <mxPoint x="1265" y="1075" />
              <mxPoint x="1265" y="582" />
            </Array>
          </mxGeometry>
        </mxCell>
        <mxCell id="Ip_L7VddbrHMoP8GEFYD-42" value="False" style="edgeLabel;html=1;align=center;verticalAlign=middle;resizable=0;points=[];" vertex="1" connectable="0" parent="7TJ9QhRvp5jiKfUdtxeP-59">
          <mxGeometry x="-0.8547" y="2" relative="1" as="geometry">
            <mxPoint as="offset" />
          </mxGeometry>
        </mxCell>
        <mxCell id="7TJ9QhRvp5jiKfUdtxeP-68" value="" style="edgeStyle=orthogonalEdgeStyle;rounded=0;orthogonalLoop=1;jettySize=auto;html=1;" parent="1" source="7TJ9QhRvp5jiKfUdtxeP-62" target="7TJ9QhRvp5jiKfUdtxeP-67" edge="1">
          <mxGeometry relative="1" as="geometry" />
        </mxCell>
        <mxCell id="7TJ9QhRvp5jiKfUdtxeP-80" value="False" style="edgeLabel;html=1;align=center;verticalAlign=middle;resizable=0;points=[];" parent="7TJ9QhRvp5jiKfUdtxeP-68" vertex="1" connectable="0">
          <mxGeometry x="-0.2917" y="-2" relative="1" as="geometry">
            <mxPoint as="offset" />
          </mxGeometry>
        </mxCell>
        <mxCell id="7TJ9QhRvp5jiKfUdtxeP-78" style="edgeStyle=orthogonalEdgeStyle;rounded=0;orthogonalLoop=1;jettySize=auto;html=1;exitX=0;exitY=0.5;exitDx=0;exitDy=0;entryX=1;entryY=0.5;entryDx=0;entryDy=0;" parent="1" source="7TJ9QhRvp5jiKfUdtxeP-62" target="Ip_L7VddbrHMoP8GEFYD-55" edge="1">
          <mxGeometry relative="1" as="geometry">
            <mxPoint x="-50" y="650" as="targetPoint" />
          </mxGeometry>
        </mxCell>
        <mxCell id="7TJ9QhRvp5jiKfUdtxeP-79" value="True" style="edgeLabel;html=1;align=center;verticalAlign=middle;resizable=0;points=[];" parent="7TJ9QhRvp5jiKfUdtxeP-78" vertex="1" connectable="0">
          <mxGeometry x="0.0494" y="-2" relative="1" as="geometry">
            <mxPoint as="offset" />
          </mxGeometry>
        </mxCell>
        <mxCell id="7TJ9QhRvp5jiKfUdtxeP-62" value="Opsi == &quot;1&quot;" style="rhombus;whiteSpace=wrap;html=1;rounded=1;" parent="1" vertex="1">
          <mxGeometry x="110" y="600" width="120" height="100" as="geometry" />
        </mxCell>
        <mxCell id="7TJ9QhRvp5jiKfUdtxeP-70" value="" style="edgeStyle=orthogonalEdgeStyle;rounded=0;orthogonalLoop=1;jettySize=auto;html=1;" parent="1" source="7TJ9QhRvp5jiKfUdtxeP-67" target="7TJ9QhRvp5jiKfUdtxeP-69" edge="1">
          <mxGeometry relative="1" as="geometry" />
        </mxCell>
        <mxCell id="7TJ9QhRvp5jiKfUdtxeP-81" value="False" style="edgeLabel;html=1;align=center;verticalAlign=middle;resizable=0;points=[];" parent="7TJ9QhRvp5jiKfUdtxeP-70" vertex="1" connectable="0">
          <mxGeometry x="-0.1964" y="-2" relative="1" as="geometry">
            <mxPoint as="offset" />
          </mxGeometry>
        </mxCell>
        <mxCell id="7TJ9QhRvp5jiKfUdtxeP-87" style="edgeStyle=orthogonalEdgeStyle;rounded=0;orthogonalLoop=1;jettySize=auto;html=1;exitX=0;exitY=0.5;exitDx=0;exitDy=0;entryX=1;entryY=0.5;entryDx=0;entryDy=0;" parent="1" source="7TJ9QhRvp5jiKfUdtxeP-67" target="Ip_L7VddbrHMoP8GEFYD-60" edge="1">
          <mxGeometry relative="1" as="geometry">
            <mxPoint x="-50" y="830" as="targetPoint" />
          </mxGeometry>
        </mxCell>
        <mxCell id="7TJ9QhRvp5jiKfUdtxeP-107" value="True" style="edgeLabel;html=1;align=center;verticalAlign=middle;resizable=0;points=[];" parent="7TJ9QhRvp5jiKfUdtxeP-87" vertex="1" connectable="0">
          <mxGeometry x="-0.0981" y="-1" relative="1" as="geometry">
            <mxPoint x="-8" y="1" as="offset" />
          </mxGeometry>
        </mxCell>
        <mxCell id="7TJ9QhRvp5jiKfUdtxeP-67" value="Opsi == &quot;2&quot;" style="rhombus;whiteSpace=wrap;html=1;rounded=1;" parent="1" vertex="1">
          <mxGeometry x="110" y="780" width="120" height="100" as="geometry" />
        </mxCell>
        <mxCell id="7TJ9QhRvp5jiKfUdtxeP-72" value="" style="edgeStyle=orthogonalEdgeStyle;rounded=0;orthogonalLoop=1;jettySize=auto;html=1;" parent="1" source="7TJ9QhRvp5jiKfUdtxeP-69" target="7TJ9QhRvp5jiKfUdtxeP-71" edge="1">
          <mxGeometry relative="1" as="geometry" />
        </mxCell>
        <mxCell id="7TJ9QhRvp5jiKfUdtxeP-82" value="False" style="edgeLabel;html=1;align=center;verticalAlign=middle;resizable=0;points=[];" parent="7TJ9QhRvp5jiKfUdtxeP-72" vertex="1" connectable="0">
          <mxGeometry x="-0.1488" relative="1" as="geometry">
            <mxPoint as="offset" />
          </mxGeometry>
        </mxCell>
        <mxCell id="7TJ9QhRvp5jiKfUdtxeP-91" style="edgeStyle=orthogonalEdgeStyle;rounded=0;orthogonalLoop=1;jettySize=auto;html=1;exitX=0;exitY=0.5;exitDx=0;exitDy=0;entryX=1;entryY=0.5;entryDx=0;entryDy=0;" parent="1" source="7TJ9QhRvp5jiKfUdtxeP-69" target="Ip_L7VddbrHMoP8GEFYD-63" edge="1">
          <mxGeometry relative="1" as="geometry">
            <mxPoint x="-50" y="1010" as="targetPoint" />
          </mxGeometry>
        </mxCell>
        <mxCell id="7TJ9QhRvp5jiKfUdtxeP-108" value="True" style="edgeLabel;html=1;align=center;verticalAlign=middle;resizable=0;points=[];" parent="7TJ9QhRvp5jiKfUdtxeP-91" vertex="1" connectable="0">
          <mxGeometry x="-0.0019" y="-4" relative="1" as="geometry">
            <mxPoint as="offset" />
          </mxGeometry>
        </mxCell>
        <mxCell id="7TJ9QhRvp5jiKfUdtxeP-69" value="Opsi == &quot;3&quot;" style="rhombus;whiteSpace=wrap;html=1;rounded=1;" parent="1" vertex="1">
          <mxGeometry x="110" y="960" width="120" height="100" as="geometry" />
        </mxCell>
        <mxCell id="7TJ9QhRvp5jiKfUdtxeP-74" value="" style="edgeStyle=orthogonalEdgeStyle;rounded=0;orthogonalLoop=1;jettySize=auto;html=1;" parent="1" source="7TJ9QhRvp5jiKfUdtxeP-71" target="7TJ9QhRvp5jiKfUdtxeP-73" edge="1">
          <mxGeometry relative="1" as="geometry" />
        </mxCell>
        <mxCell id="7TJ9QhRvp5jiKfUdtxeP-84" value="False" style="edgeLabel;html=1;align=center;verticalAlign=middle;resizable=0;points=[];" parent="7TJ9QhRvp5jiKfUdtxeP-74" vertex="1" connectable="0">
          <mxGeometry x="-0.2583" relative="1" as="geometry">
            <mxPoint as="offset" />
          </mxGeometry>
        </mxCell>
        <mxCell id="7TJ9QhRvp5jiKfUdtxeP-92" style="edgeStyle=orthogonalEdgeStyle;rounded=0;orthogonalLoop=1;jettySize=auto;html=1;exitX=0;exitY=0.5;exitDx=0;exitDy=0;entryX=1;entryY=0.5;entryDx=0;entryDy=0;" parent="1" source="7TJ9QhRvp5jiKfUdtxeP-71" target="Ip_L7VddbrHMoP8GEFYD-66" edge="1">
          <mxGeometry relative="1" as="geometry">
            <mxPoint x="-50" y="1190" as="targetPoint" />
            <Array as="points">
              <mxPoint x="30" y="1190" />
              <mxPoint x="30" y="1191" />
            </Array>
          </mxGeometry>
        </mxCell>
        <mxCell id="7TJ9QhRvp5jiKfUdtxeP-109" value="True" style="edgeLabel;html=1;align=center;verticalAlign=middle;resizable=0;points=[];" parent="7TJ9QhRvp5jiKfUdtxeP-92" vertex="1" connectable="0">
          <mxGeometry x="-0.0404" y="-1" relative="1" as="geometry">
            <mxPoint as="offset" />
          </mxGeometry>
        </mxCell>
        <mxCell id="7TJ9QhRvp5jiKfUdtxeP-71" value="Opsi == &quot;4&quot;" style="rhombus;whiteSpace=wrap;html=1;rounded=1;" parent="1" vertex="1">
          <mxGeometry x="110" y="1140" width="120" height="100" as="geometry" />
        </mxCell>
        <mxCell id="7TJ9QhRvp5jiKfUdtxeP-93" style="edgeStyle=orthogonalEdgeStyle;rounded=0;orthogonalLoop=1;jettySize=auto;html=1;exitX=0;exitY=0.5;exitDx=0;exitDy=0;entryX=0;entryY=0.5;entryDx=0;entryDy=0;" parent="1" source="7TJ9QhRvp5jiKfUdtxeP-73" target="7TJ9QhRvp5jiKfUdtxeP-26" edge="1">
          <mxGeometry relative="1" as="geometry">
            <mxPoint x="-130" y="400" as="targetPoint" />
            <Array as="points">
              <mxPoint x="-360" y="1370" />
              <mxPoint x="-360" y="520" />
            </Array>
          </mxGeometry>
        </mxCell>
        <mxCell id="7TJ9QhRvp5jiKfUdtxeP-110" value="False" style="edgeLabel;html=1;align=center;verticalAlign=middle;resizable=0;points=[];" parent="7TJ9QhRvp5jiKfUdtxeP-93" vertex="1" connectable="0">
          <mxGeometry x="-0.1672" y="-1" relative="1" as="geometry">
            <mxPoint as="offset" />
          </mxGeometry>
        </mxCell>
        <mxCell id="7TJ9QhRvp5jiKfUdtxeP-95" value="" style="edgeStyle=orthogonalEdgeStyle;rounded=0;orthogonalLoop=1;jettySize=auto;html=1;" parent="1" source="7TJ9QhRvp5jiKfUdtxeP-73" target="7TJ9QhRvp5jiKfUdtxeP-94" edge="1">
          <mxGeometry relative="1" as="geometry" />
        </mxCell>
        <mxCell id="7TJ9QhRvp5jiKfUdtxeP-111" value="True" style="edgeLabel;html=1;align=center;verticalAlign=middle;resizable=0;points=[];" parent="7TJ9QhRvp5jiKfUdtxeP-95" vertex="1" connectable="0">
          <mxGeometry x="-0.1323" relative="1" as="geometry">
            <mxPoint as="offset" />
          </mxGeometry>
        </mxCell>
        <mxCell id="7TJ9QhRvp5jiKfUdtxeP-73" value="Opsi == &quot;5&quot;" style="rhombus;whiteSpace=wrap;html=1;rounded=1;" parent="1" vertex="1">
          <mxGeometry x="110" y="1320" width="120" height="100" as="geometry" />
        </mxCell>
        <mxCell id="7TJ9QhRvp5jiKfUdtxeP-113" style="edgeStyle=orthogonalEdgeStyle;rounded=0;orthogonalLoop=1;jettySize=auto;html=1;exitX=0.5;exitY=1;exitDx=0;exitDy=0;entryX=0;entryY=0.5;entryDx=0;entryDy=0;" parent="1" source="7TJ9QhRvp5jiKfUdtxeP-94" target="7TJ9QhRvp5jiKfUdtxeP-112" edge="1">
          <mxGeometry relative="1" as="geometry" />
        </mxCell>
        <mxCell id="7TJ9QhRvp5jiKfUdtxeP-94" value="Logout" style="whiteSpace=wrap;html=1;rounded=1;" parent="1" vertex="1">
          <mxGeometry x="110" y="1520" width="120" height="60" as="geometry" />
        </mxCell>
        <mxCell id="7TJ9QhRvp5jiKfUdtxeP-112" value="End" style="ellipse;whiteSpace=wrap;html=1;" parent="1" vertex="1">
          <mxGeometry x="365" y="1700" width="120" height="80" as="geometry" />
        </mxCell>
        <mxCell id="Ip_L7VddbrHMoP8GEFYD-1" value="" style="edgeStyle=none;orthogonalLoop=1;jettySize=auto;html=1;rounded=0;" edge="1" parent="1">
          <mxGeometry width="100" relative="1" as="geometry">
            <mxPoint x="100" y="500" as="sourcePoint" />
            <mxPoint x="150" y="500" as="targetPoint" />
            <Array as="points" />
          </mxGeometry>
        </mxCell>
        <mxCell id="Ip_L7VddbrHMoP8GEFYD-11" value="" style="edgeStyle=orthogonalEdgeStyle;rounded=0;orthogonalLoop=1;jettySize=auto;html=1;" edge="1" parent="1" target="Ip_L7VddbrHMoP8GEFYD-10">
          <mxGeometry relative="1" as="geometry">
            <mxPoint x="425" y="-100" as="sourcePoint" />
          </mxGeometry>
        </mxCell>
        <mxCell id="Ip_L7VddbrHMoP8GEFYD-13" value="" style="edgeStyle=orthogonalEdgeStyle;rounded=0;orthogonalLoop=1;jettySize=auto;html=1;entryX=1;entryY=0.5;entryDx=0;entryDy=0;" edge="1" parent="1" source="Ip_L7VddbrHMoP8GEFYD-16" target="Ip_L7VddbrHMoP8GEFYD-35">
          <mxGeometry relative="1" as="geometry">
            <mxPoint x="220" y="20" as="targetPoint" />
          </mxGeometry>
        </mxCell>
        <mxCell id="Ip_L7VddbrHMoP8GEFYD-18" style="edgeStyle=orthogonalEdgeStyle;rounded=0;orthogonalLoop=1;jettySize=auto;html=1;entryX=0.5;entryY=0;entryDx=0;entryDy=0;" edge="1" parent="1" source="Ip_L7VddbrHMoP8GEFYD-10" target="7TJ9QhRvp5jiKfUdtxeP-8">
          <mxGeometry relative="1" as="geometry" />
        </mxCell>
        <mxCell id="Ip_L7VddbrHMoP8GEFYD-10" value="Register" style="rhombus;whiteSpace=wrap;html=1;" vertex="1" parent="1">
          <mxGeometry x="385" y="-20" width="80" height="80" as="geometry" />
        </mxCell>
        <mxCell id="Ip_L7VddbrHMoP8GEFYD-14" style="edgeStyle=orthogonalEdgeStyle;rounded=0;orthogonalLoop=1;jettySize=auto;html=1;entryX=0;entryY=0.5;entryDx=0;entryDy=0;exitX=0.6;exitY=0;exitDx=0;exitDy=0;exitPerimeter=0;" edge="1" parent="1" source="Ip_L7VddbrHMoP8GEFYD-35" target="Ip_L7VddbrHMoP8GEFYD-30">
          <mxGeometry relative="1" as="geometry">
            <mxPoint x="131.72000000000025" y="-12.760000000000218" as="sourcePoint" />
            <mxPoint x="375" y="-130" as="targetPoint" />
            <Array as="points">
              <mxPoint x="140" y="-130" />
            </Array>
          </mxGeometry>
        </mxCell>
        <mxCell id="Ip_L7VddbrHMoP8GEFYD-17" value="" style="edgeStyle=orthogonalEdgeStyle;rounded=0;orthogonalLoop=1;jettySize=auto;html=1;" edge="1" parent="1" source="Ip_L7VddbrHMoP8GEFYD-10" target="Ip_L7VddbrHMoP8GEFYD-16">
          <mxGeometry relative="1" as="geometry">
            <mxPoint x="390" y="-230" as="sourcePoint" />
            <mxPoint x="260" y="-230" as="targetPoint" />
          </mxGeometry>
        </mxCell>
        <mxCell id="Ip_L7VddbrHMoP8GEFYD-16" value="True" style="text;html=1;align=center;verticalAlign=middle;resizable=0;points=[];autosize=1;strokeColor=none;fillColor=none;" vertex="1" parent="1">
          <mxGeometry x="260" y="5" width="50" height="30" as="geometry" />
        </mxCell>
        <mxCell id="Ip_L7VddbrHMoP8GEFYD-24" value="" style="edgeStyle=orthogonalEdgeStyle;rounded=0;orthogonalLoop=1;jettySize=auto;html=1;" edge="1" parent="1" target="Ip_L7VddbrHMoP8GEFYD-23">
          <mxGeometry relative="1" as="geometry">
            <mxPoint x="425" y="320" as="sourcePoint" />
          </mxGeometry>
        </mxCell>
        <mxCell id="Ip_L7VddbrHMoP8GEFYD-25" value="" style="edgeStyle=orthogonalEdgeStyle;rounded=0;orthogonalLoop=1;jettySize=auto;html=1;" edge="1" parent="1" source="Ip_L7VddbrHMoP8GEFYD-23" target="7TJ9QhRvp5jiKfUdtxeP-28">
          <mxGeometry relative="1" as="geometry" />
        </mxCell>
        <mxCell id="Ip_L7VddbrHMoP8GEFYD-23" value="Jemaat" style="rhombus;whiteSpace=wrap;html=1;" vertex="1" parent="1">
          <mxGeometry x="385" y="350" width="80" height="80" as="geometry" />
        </mxCell>
        <mxCell id="Ip_L7VddbrHMoP8GEFYD-29" value="Data jemaat" style="shape=parallelogram;html=1;strokeWidth=2;perimeter=parallelogramPerimeter;whiteSpace=wrap;rounded=1;arcSize=12;size=0.23;" vertex="1" parent="1">
          <mxGeometry x="560" y="700" width="100" height="60" as="geometry" />
        </mxCell>
        <mxCell id="Ip_L7VddbrHMoP8GEFYD-30" value="Pilihan awal" style="shape=parallelogram;html=1;strokeWidth=2;perimeter=parallelogramPerimeter;whiteSpace=wrap;rounded=1;arcSize=12;size=0.23;" vertex="1" parent="1">
          <mxGeometry x="365" y="-160" width="100" height="60" as="geometry" />
        </mxCell>
        <mxCell id="Ip_L7VddbrHMoP8GEFYD-32" value="" style="edgeStyle=none;orthogonalLoop=1;jettySize=auto;html=1;rounded=0;" edge="1" parent="1">
          <mxGeometry width="100" relative="1" as="geometry">
            <mxPoint x="365" y="-150" as="sourcePoint" />
            <mxPoint x="415" y="-150" as="targetPoint" />
            <Array as="points" />
          </mxGeometry>
        </mxCell>
        <mxCell id="Ip_L7VddbrHMoP8GEFYD-33" value="Masukkan username dan password" style="shape=parallelogram;html=1;strokeWidth=2;perimeter=parallelogramPerimeter;whiteSpace=wrap;rounded=1;arcSize=12;size=0.23;" vertex="1" parent="1">
          <mxGeometry x="335" y="260" width="180" height="70" as="geometry" />
        </mxCell>
        <mxCell id="Ip_L7VddbrHMoP8GEFYD-34" value="" style="edgeStyle=none;orthogonalLoop=1;jettySize=auto;html=1;rounded=0;" edge="1" parent="1">
          <mxGeometry width="100" relative="1" as="geometry">
            <mxPoint x="350" y="270" as="sourcePoint" />
            <mxPoint x="400" y="270" as="targetPoint" />
            <Array as="points" />
          </mxGeometry>
        </mxCell>
        <mxCell id="Ip_L7VddbrHMoP8GEFYD-35" value="Masukkan password, username dan tipe akun" style="shape=parallelogram;html=1;strokeWidth=2;perimeter=parallelogramPerimeter;whiteSpace=wrap;rounded=1;arcSize=12;size=0.23;" vertex="1" parent="1">
          <mxGeometry x="60" y="-10" width="160" height="60" as="geometry" />
        </mxCell>
        <mxCell id="Ip_L7VddbrHMoP8GEFYD-36" value="" style="edgeStyle=none;orthogonalLoop=1;jettySize=auto;html=1;rounded=0;" edge="1" parent="1">
          <mxGeometry width="100" relative="1" as="geometry">
            <mxPoint x="70" y="-1" as="sourcePoint" />
            <mxPoint x="120" y="-1" as="targetPoint" />
            <Array as="points" />
          </mxGeometry>
        </mxCell>
        <mxCell id="Ip_L7VddbrHMoP8GEFYD-37" value="" style="edgeStyle=none;orthogonalLoop=1;jettySize=auto;html=1;rounded=0;" edge="1" parent="1">
          <mxGeometry width="100" relative="1" as="geometry">
            <mxPoint x="365" y="560" as="sourcePoint" />
            <mxPoint x="415" y="560" as="targetPoint" />
            <Array as="points" />
          </mxGeometry>
        </mxCell>
        <mxCell id="Ip_L7VddbrHMoP8GEFYD-38" value="" style="edgeStyle=none;orthogonalLoop=1;jettySize=auto;html=1;rounded=0;" edge="1" parent="1">
          <mxGeometry width="100" relative="1" as="geometry">
            <mxPoint x="620" y="750" as="sourcePoint" />
            <mxPoint x="670" y="750" as="targetPoint" />
            <Array as="points" />
          </mxGeometry>
        </mxCell>
        <mxCell id="Ip_L7VddbrHMoP8GEFYD-39" value="Masukkan data jemaat baru" style="shape=parallelogram;html=1;strokeWidth=2;perimeter=parallelogramPerimeter;whiteSpace=wrap;rounded=1;arcSize=12;size=0.23;" vertex="1" parent="1">
          <mxGeometry x="560" y="880" width="120" height="60" as="geometry" />
        </mxCell>
        <mxCell id="Ip_L7VddbrHMoP8GEFYD-40" value="" style="edgeStyle=none;orthogonalLoop=1;jettySize=auto;html=1;rounded=0;" edge="1" parent="1">
          <mxGeometry width="100" relative="1" as="geometry">
            <mxPoint x="560" y="890" as="sourcePoint" />
            <mxPoint x="610" y="890" as="targetPoint" />
            <Array as="points" />
          </mxGeometry>
        </mxCell>
        <mxCell id="Ip_L7VddbrHMoP8GEFYD-49" value="" style="edgeStyle=orthogonalEdgeStyle;rounded=0;orthogonalLoop=1;jettySize=auto;html=1;exitX=0.5;exitY=1;exitDx=0;exitDy=0;exitPerimeter=0;" edge="1" parent="1" source="Ip_L7VddbrHMoP8GEFYD-48" target="7TJ9QhRvp5jiKfUdtxeP-26">
          <mxGeometry relative="1" as="geometry" />
        </mxCell>
        <mxCell id="Ip_L7VddbrHMoP8GEFYD-48" value="Admin" style="strokeWidth=2;html=1;shape=mxgraph.flowchart.decision;whiteSpace=wrap;" vertex="1" parent="1">
          <mxGeometry x="120" y="340" width="100" height="100" as="geometry" />
        </mxCell>
        <mxCell id="Ip_L7VddbrHMoP8GEFYD-50" style="edgeStyle=orthogonalEdgeStyle;rounded=0;orthogonalLoop=1;jettySize=auto;html=1;entryX=1;entryY=0.5;entryDx=0;entryDy=0;entryPerimeter=0;" edge="1" parent="1" source="Ip_L7VddbrHMoP8GEFYD-51" target="Ip_L7VddbrHMoP8GEFYD-48">
          <mxGeometry relative="1" as="geometry" />
        </mxCell>
        <mxCell id="Ip_L7VddbrHMoP8GEFYD-52" value="" style="edgeStyle=orthogonalEdgeStyle;rounded=0;orthogonalLoop=1;jettySize=auto;html=1;entryX=1;entryY=0.5;entryDx=0;entryDy=0;entryPerimeter=0;" edge="1" parent="1" source="Ip_L7VddbrHMoP8GEFYD-23" target="Ip_L7VddbrHMoP8GEFYD-51">
          <mxGeometry relative="1" as="geometry">
            <mxPoint x="385" y="390" as="sourcePoint" />
            <mxPoint x="220" y="390" as="targetPoint" />
          </mxGeometry>
        </mxCell>
        <mxCell id="Ip_L7VddbrHMoP8GEFYD-51" value="False" style="text;html=1;align=center;verticalAlign=middle;resizable=0;points=[];autosize=1;strokeColor=none;fillColor=none;" vertex="1" parent="1">
          <mxGeometry x="280" y="375" width="50" height="30" as="geometry" />
        </mxCell>
        <mxCell id="Ip_L7VddbrHMoP8GEFYD-54" value="Keluar?" style="strokeWidth=2;html=1;shape=mxgraph.flowchart.decision;whiteSpace=wrap;" vertex="1" parent="1">
          <mxGeometry x="797.5" y="1025" width="100" height="100" as="geometry" />
        </mxCell>
        <mxCell id="Ip_L7VddbrHMoP8GEFYD-59" style="edgeStyle=orthogonalEdgeStyle;rounded=0;orthogonalLoop=1;jettySize=auto;html=1;entryX=0;entryY=0.5;entryDx=0;entryDy=0;exitX=0;exitY=0.5;exitDx=0;exitDy=0;" edge="1" parent="1" source="Ip_L7VddbrHMoP8GEFYD-55" target="7TJ9QhRvp5jiKfUdtxeP-26">
          <mxGeometry relative="1" as="geometry">
            <Array as="points">
              <mxPoint x="-140" y="650" />
              <mxPoint x="-140" y="520" />
            </Array>
          </mxGeometry>
        </mxCell>
        <mxCell id="Ip_L7VddbrHMoP8GEFYD-55" value="Data jemaat" style="shape=parallelogram;html=1;strokeWidth=2;perimeter=parallelogramPerimeter;whiteSpace=wrap;rounded=1;arcSize=12;size=0.23;" vertex="1" parent="1">
          <mxGeometry x="-130" y="620" width="100" height="60" as="geometry" />
        </mxCell>
        <mxCell id="Ip_L7VddbrHMoP8GEFYD-58" value="" style="edgeStyle=none;orthogonalLoop=1;jettySize=auto;html=1;rounded=0;" edge="1" parent="1">
          <mxGeometry width="100" relative="1" as="geometry">
            <mxPoint x="-70" y="670" as="sourcePoint" />
            <mxPoint x="-20" y="670" as="targetPoint" />
            <Array as="points" />
          </mxGeometry>
        </mxCell>
        <mxCell id="Ip_L7VddbrHMoP8GEFYD-62" style="edgeStyle=orthogonalEdgeStyle;rounded=0;orthogonalLoop=1;jettySize=auto;html=1;entryX=0;entryY=0.5;entryDx=0;entryDy=0;" edge="1" parent="1" source="Ip_L7VddbrHMoP8GEFYD-60" target="7TJ9QhRvp5jiKfUdtxeP-26">
          <mxGeometry relative="1" as="geometry">
            <Array as="points">
              <mxPoint x="-200" y="830" />
              <mxPoint x="-200" y="520" />
            </Array>
          </mxGeometry>
        </mxCell>
        <mxCell id="Ip_L7VddbrHMoP8GEFYD-60" value="Masukkan data jemaat baru" style="shape=parallelogram;html=1;strokeWidth=2;perimeter=parallelogramPerimeter;whiteSpace=wrap;rounded=1;arcSize=12;size=0.23;" vertex="1" parent="1">
          <mxGeometry x="-170" y="800" width="120" height="60" as="geometry" />
        </mxCell>
        <mxCell id="Ip_L7VddbrHMoP8GEFYD-61" value="" style="edgeStyle=none;orthogonalLoop=1;jettySize=auto;html=1;rounded=0;" edge="1" parent="1">
          <mxGeometry width="100" relative="1" as="geometry">
            <mxPoint x="-180" y="810" as="sourcePoint" />
            <mxPoint x="-130" y="810" as="targetPoint" />
            <Array as="points" />
          </mxGeometry>
        </mxCell>
        <mxCell id="Ip_L7VddbrHMoP8GEFYD-65" style="edgeStyle=orthogonalEdgeStyle;rounded=0;orthogonalLoop=1;jettySize=auto;html=1;entryX=0;entryY=0.5;entryDx=0;entryDy=0;" edge="1" parent="1" source="Ip_L7VddbrHMoP8GEFYD-63" target="7TJ9QhRvp5jiKfUdtxeP-26">
          <mxGeometry relative="1" as="geometry">
            <Array as="points">
              <mxPoint x="-270" y="1010" />
              <mxPoint x="-270" y="520" />
            </Array>
          </mxGeometry>
        </mxCell>
        <mxCell id="Ip_L7VddbrHMoP8GEFYD-63" value="Update data jemaat" style="shape=parallelogram;html=1;strokeWidth=2;perimeter=parallelogramPerimeter;whiteSpace=wrap;rounded=1;arcSize=12;size=0.23;" vertex="1" parent="1">
          <mxGeometry x="-170" y="980" width="100" height="60" as="geometry" />
        </mxCell>
        <mxCell id="Ip_L7VddbrHMoP8GEFYD-64" value="" style="edgeStyle=none;orthogonalLoop=1;jettySize=auto;html=1;rounded=0;" edge="1" parent="1">
          <mxGeometry width="100" relative="1" as="geometry">
            <mxPoint x="-180" y="990" as="sourcePoint" />
            <mxPoint x="-130" y="990" as="targetPoint" />
            <Array as="points" />
          </mxGeometry>
        </mxCell>
        <mxCell id="Ip_L7VddbrHMoP8GEFYD-68" style="edgeStyle=orthogonalEdgeStyle;rounded=0;orthogonalLoop=1;jettySize=auto;html=1;exitX=0;exitY=0.5;exitDx=0;exitDy=0;entryX=0.071;entryY=0.575;entryDx=0;entryDy=0;entryPerimeter=0;" edge="1" parent="1" source="Ip_L7VddbrHMoP8GEFYD-66" target="7TJ9QhRvp5jiKfUdtxeP-26">
          <mxGeometry relative="1" as="geometry">
            <mxPoint x="120" y="520" as="targetPoint" />
            <Array as="points">
              <mxPoint x="-310" y="1190" />
              <mxPoint x="-310" y="520" />
              <mxPoint x="118" y="520" />
            </Array>
          </mxGeometry>
        </mxCell>
        <mxCell id="Ip_L7VddbrHMoP8GEFYD-66" value="Id data jemaat yang ingin dihapus" style="shape=parallelogram;html=1;strokeWidth=2;perimeter=parallelogramPerimeter;whiteSpace=wrap;rounded=1;arcSize=12;size=0.23;" vertex="1" parent="1">
          <mxGeometry x="-190" y="1160" width="120" height="60" as="geometry" />
        </mxCell>
        <mxCell id="Ip_L7VddbrHMoP8GEFYD-67" value="" style="edgeStyle=none;orthogonalLoop=1;jettySize=auto;html=1;rounded=0;" edge="1" parent="1">
          <mxGeometry width="100" relative="1" as="geometry">
            <mxPoint x="-190" y="1170" as="sourcePoint" />
            <mxPoint x="-140" y="1170" as="targetPoint" />
            <Array as="points" />
          </mxGeometry>
        </mxCell>
      </root>
    </mxGraphModel>
  </diagram>
</mxfile>
